<?xml version="1.0" encoding="UTF-8" standalone="no"?>
<svg
   clip-rule="evenodd"
   fill-rule="evenodd"
   height="560"
   image-rendering="optimizeQuality"
   shape-rendering="geometricPrecision"
   text-rendering="geometricPrecision"
   viewBox="0 0 560 560"
   width="560"
   version="1.1"
   id="svg17"
   sodipodi:docname="filebrowser.svg"
   inkscape:version="1.4 (86a8ad7, 2024-10-11)"
   xmlns:inkscape="http://www.inkscape.org/namespaces/inkscape"
   xmlns:sodipodi="http://sodipodi.sourceforge.net/DTD/sodipodi-0.dtd"
   xmlns="http://www.w3.org/2000/svg"
   xmlns:svg="http://www.w3.org/2000/svg">
  <defs
     id="defs17" />
  <sodipodi:namedview
     id="namedview17"
     pagecolor="#ffffff"
     bordercolor="#000000"
     borderopacity="0.25"
     inkscape:showpageshadow="2"
     inkscape:pageopacity="0.0"
     inkscape:pagecheckerboard="0"
     inkscape:deskcolor="#d1d1d1"
     inkscape:zoom="1.5267857"
     inkscape:cx="279.67252"
     inkscape:cy="279.34503"
     inkscape:window-width="2560"
     inkscape:window-height="1057"
     inkscape:window-x="-8"
     inkscape:window-y="-8"
     inkscape:window-maximized="1"
     inkscape:current-layer="svg17" />
  <path
     d="M 280,1 C 434,1 559,126 559,280 559,434 434,559 280,559 126,559 1,434 1,280 1,126 126,1 280,1 Z"
     fill="#fefefe"
     id="path1" />
  <path
     d="M 405,166 523,317 C 526,433 374,569 231,515 L 155,416 269,260 c 0,0 138,-95 136,-94 z"
     fill="#332c2b"
     fill-opacity="0.14902"
     id="path2" />
  <path
     d="m 161,141 h 208 l 38,24 v 246 c 0,5 -3,8 -8,8 H 161 c -5,0 -8,-3 -8,-8 V 149 c 0,-5 3,-8 8,-8 z"
     fill="#2bbcff"
     id="path3"
     style="display:inline;fill:#3c3c45;fill-opacity:1"
     inkscape:label="path3" />
  <path
     d="m 161,141 h 208 l 38,24 v 2 L 370,144 H 161 c -4,0 -7,3 -7,7 v 263 c -1,-1 -1,-2 -1,-3 V 149 c 0,-5 3,-8 8,-8 z"
     fill="#53c6fc"
     id="path4"
     style="display:inline;fill:#1e1e22;fill-opacity:1" />
  <path
     d="m 235,142 h 113 v 98 H 235 Z"
     fill="#bdeaff"
     id="path5" />
  <path
     d="m 185,293 h 189 c 3,0 5,2 5,4 V 413 H 180 V 297 c 0,-2 2,-4 5,-4 z"
     fill="#bdeaff"
     id="path6" />
  <path
     d="m 180,400 h 199 v 13 H 180 Z"
     fill="#006498"
     id="path7" />
  <path
     d="m 310,156 h 10 c 3,0 6,2 6,5 v 40 c 0,3 -3,6 -6,6 h -10 c -3,0 -6,-3 -6,-6 v -40 c 0,-3 3,-5 6,-5 z"
     fill="#006498"
     id="path8" />
  <path
     d="m 184,156 c 10,0 17,7 17,17 0,9 -7,16 -17,16 -9,0 -17,-7 -17,-16 0,-10 8,-17 17,-17 z"
     fill="#fefefe"
     id="path9" />
  <g
     fill="#006498"
     id="g12"
     transform="translate(-70,-70)">
    <path
       d="m 267,448 h 165 c 2,0 3,1 3,3 0,1 -1,3 -3,3 H 267 c -2,0 -3,-2 -3,-3 0,-2 1,-3 3,-3 z"
       id="path10" />
    <path
       d="m 267,415 h 165 c 2,0 3,1 3,3 0,1 -1,2 -3,2 H 267 c -2,0 -3,-1 -3,-2 0,-2 1,-3 3,-3 z"
       id="path11" />
    <path
       d="m 267,381 h 165 c 2,0 3,2 3,3 0,2 -1,3 -3,3 H 267 c -2,0 -3,-1 -3,-3 0,-1 1,-3 3,-3 z"
       id="path12" />
  </g>
  <path
     d="m 166,402 c 3,0 5,2 5,5 0,2 -2,4 -5,4 -3,0 -5,-2 -5,-4 0,-3 2,-5 5,-5 z"
     fill="#fefefe"
     id="path13" />
  <path
     d="m 393,402 c 3,0 5,2 5,5 0,2 -2,4 -5,4 -3,0 -5,-2 -5,-4 0,-3 2,-5 5,-5 z"
     fill="#fefefe"
     id="path14" />
  <path
     d="m 235,142 h -21 v 98 h 21 z"
     fill="#006498"
     id="path15" />
  <path
     d="m 407,409 v 2 c 0,5 -3,8 -8,8 H 161 c -5,0 -8,-3 -8,-8 v -2 c 0,4 3,8 8,8 h 238 c 5,0 8,-4 8,-8 z"
     fill="#0ea5eb"
     id="path16"
     style="fill:#1e1e22;fill-opacity:1" />
  <path
     d="M 280,0 C 435,0 560,125 560,280 560,435 435,560 280,560 125,560 0,435 0,280 0,125 125,0 280,0 Z m 0,46 C 409,46 514,151 514,280 514,409 409,514 280,514 151,514 46,409 46,280 46,151 151,46 280,46 Z"
     fill="#2979ff"
     id="path17"
     style="fill:#3c3c45;fill-opacity:1"
     inkscape:highlight-color="#3c3c45" />
</svg>
