<?xml version="1.0"?>
<svg width="256" height="256" xmlns="http://www.w3.org/2000/svg" xmlns:svg="http://www.w3.org/2000/svg" version="1.1">
 <metadata id="metadata7">image/svg+xml</metadata>

 <g class="layer">
  <title>Layer 1</title>
  <path d="m217.59,28.97l-130.62,71.47l0,48.09l22.59,6.69l-71.15,71.81l130.62,-71.47l0,-48.09l-22.59,-6.69l71.15,-71.81zm-27.65,20.84l-70.25,70.88l3.56,3.53l19.22,-19.41l21.56,6.41l0,41.37l-97.97,53.6l70.25,-70.88l-3.56,-3.53l-19.22,19.41l-21.56,-6.41l0,-41.37l97.97,-53.6zm-61.94,6.63c-39.53,0 -71.56,32.03 -71.56,71.56c0,20.26 8.43,38.54 21.97,51.56l21.72,-21.93l-18.16,-5.38l0,-54.75l68.47,-37.47c-7.06,-2.33 -14.6,-3.59 -22.44,-3.59zm49.59,20l-21.71,21.94l18.15,5.37l0,54.75l-68.47,37.47c7.06,2.33 14.6,3.59 22.44,3.59c39.53,0 71.56,-32.03 71.56,-71.56c0,-20.26 -8.43,-38.54 -21.97,-51.56z" fill="#ffffff" id="mainsymbolpath" opacity="0.5"/>
 </g>
</svg>